# xmcd
#
# Track frame offsets:
#	150
#	28465
#	48150
#	67745
#	87402
#	107077
#
# Disc length: 1687 seconds
#
# Revision: 0
# Processed by: cddbd v1.4PL0 Copyright (c) Steve Scherf et al.
# Submitted via: dBpowerAMP V4.0
#
DISCID=48069506
DTITLE=Louis-Serge Joyal - Single
DYEAR=1900
DGENRE=Blues
TTITLE0=My Friends /Joyal /Lalancette 1997
TTITLE1=My Friends - Joyal 2000
TTITLE2=My Friends - Joyal 2000
TTITLE3=My Friends - Joyal 2000
TTITLE4=My Friends - Joyal 2000
TTITLE5=My Friends - Joyal 2000
EXTD=The Singles
EXTT0=
EXTT1=
EXTT2=
EXTT3=
EXTT4=
EXTT5=
PLAYORDER=
